/* XPM */
static char *close_press[] = {
/* columns rows colors chars-per-pixel */
"30 30 16 1 ",
"  c gray7",
". c #147112BB129F",
"X c #14EC12DE12BC",
"o c #36A21C401A8E",
"O c #36FF1C5B1AA4",
"+ c #37D31C961AD5",
"@ c #38A91CD21B07",
"# c #395D1D041B31",
"$ c #39E91D2A1B51",
"% c #3ACC1D691B86",
"& c #5E2D274423BB",
"* c #5FB427B12416",
"= c #609C27F2244C",
"- c #63CC28D52509",
"; c #641E28EB251D",
": c #FFFF54544949",
/* pixels */
"                              ",
"                              ",
"                              ",
"                              ",
"                              ",
"                              ",
"                              ",
"            *::::;X           ",
"          @::::::::$          ",
"         #::::::::::O         ",
"        .::::::::::::.        ",
"        =::::::::::::&        ",
"        ::::::::::::::        ",
"        ::::::::::::::        ",
"        ::::::::::::::        ",
"        ::::::::::::::        ",
"        -::::::::::::&        ",
"        X::::::::::::X        ",
"         %::::::::::o         ",
"          O::::::::+          ",
"            &::::=X           ",
"                              ",
"                              ",
"                              ",
"                              ",
"                              ",
"                              ",
"                              ",
"                              ",
"                              "
};
