/* XPM */
static char *close_unfocus[] = {
/* columns rows colors chars-per-pixel */
"30 30 6 1 ",
"  c #282928292829",
". c #2C882C882C88",
"X c #2CD62CD62CD6",
"o c #314631463146",
"O c #31D531D531D5",
"+ c #444444444444",
/* pixels */
"                              ",
"                              ",
"                              ",
"                              ",
"                              ",
"                              ",
"                              ",
"            o++++O            ",
"          X++++++++X          ",
"         X++++++++++.         ",
"         ++++++++++++         ",
"        o++++++++++++o        ",
"        ++++++++++++++        ",
"        ++++++++++++++        ",
"        ++++++++++++++        ",
"        ++++++++++++++        ",
"        O++++++++++++o        ",
"         ++++++++++++         ",
"         X++++++++++.         ",
"          .++++++++.          ",
"            o++++o            ",
"                              ",
"                              ",
"                              ",
"                              ",
"                              ",
"                              ",
"                              ",
"                              ",
"                              "
};
