/* XPM */
static char *close_focus[] = {
/* columns rows colors chars-per-pixel */
"30 30 14 1 ",
"  c gray7",
". c #141F12C912AB",
"X c #14B212FD12D5",
"o c #2F3A1C401A8E",
"O c #2F841C5B1AA4",
"+ c #302E1C961AD5",
"@ c #31201CEB1B1C",
"# c #32331D4A1B6C",
"$ c #4EB6274023B8",
"% c #4EDC274C23C3",
"& c #504A27CD242D",
"* c #50D127FB2454",
"= c #536028E02513",
"- c #CFCF54544949",
/* pixels */
"                              ",
"                              ",
"                              ",
"                              ",
"                              ",
"                              ",
"                              ",
"            &----=.           ",
"          @--------#          ",
"         @----------O         ",
"        .------------.        ",
"        *------------$        ",
"        --------------        ",
"        --------------        ",
"        --------------        ",
"        --------------        ",
"        =------------%        ",
"        .------------.        ",
"         #----------o         ",
"          O--------+          ",
"            %----*X           ",
"                              ",
"                              ",
"                              ",
"                              ",
"                              ",
"                              ",
"                              ",
"                              ",
"                              "
};
