/* XPM */
static char *max_press[] = {
/* columns rows colors chars-per-pixel */
"30 30 14 1 ",
"  c gray7",
". c #131C146A12FF",
"X c #135514E91330",
"o c #213C34451F88",
"O c #216534A21FAD",
"+ c #21AE35471FEE",
"@ c #222D3662205E",
"# c #228B373920B2",
"$ c #22E9380C2105",
"% c #318A59092E02",
"& c #322D5A772E91",
"* c #328C5B4F2EE7",
"= c #33EE5E6E3022",
"- c #7474EFEF6969",
/* pixels */
"                              ",
"                              ",
"                              ",
"                              ",
"                              ",
"                              ",
"                              ",
"            &----=X           ",
"          @--------#          ",
"         @----------o         ",
"        .------------.        ",
"        *------------%        ",
"        --------------        ",
"        --------------        ",
"        --------------        ",
"        --------------        ",
"        =------------%        ",
"        .------------.        ",
"         $----------o         ",
"          O--------+          ",
"            %----*X           ",
"                              ",
"                              ",
"                              ",
"                              ",
"                              ",
"                              ",
"                              ",
"                              ",
"                              "
};
