/* XPM */
static char *max_focus[] = {
/* columns rows colors chars-per-pixel */
"30 30 14 1 ",
"  c gray7",
". c #12D213F812E1",
"X c #1C522C011D19",
"o c #1C962CAD1D61",
"O c #1CD22D441DA1",
"+ c #1D172DF41DED",
"@ c #1D692EC51E45",
"# c #274047A828DA",
"$ c #274C47C928E8",
"% c #27B148C62954",
"& c #27F2496A299A",
"* c #28D54BA82A8E",
"= c #28EB4BE32AA7",
"- c #5454B9B95959",
/* pixels */
"                              ",
"                              ",
"                              ",
"                              ",
"                              ",
"                              ",
"                              ",
"            %----=.           ",
"          O--------+          ",
"         +----------X         ",
"        .------------.        ",
"        &------------#        ",
"        --------------        ",
"        --------------        ",
"        --------------        ",
"        --------------        ",
"        *------------$        ",
"        .------------.        ",
"         @----------X         ",
"          X--------o          ",
"            #----&.           ",
"                              ",
"                              ",
"                              ",
"                              ",
"                              ",
"                              ",
"                              ",
"                              ",
"                              "
};
