/* XPM */
static char *min_focus[] = {
/* columns rows colors chars-per-pixel */
"30 30 16 1 ",
"  c gray7",
". c #144C134F127E",
"X c #14EA13A7129D",
"o c #31E823C61820",
"O c #3317246F185A",
"+ c #340F24F9188A",
"@ c #3488253C18A1",
"# c #354C25A918C6",
"$ c #53C3369A1E92",
"% c #53EE36B21E9A",
"& c #540236BD1E9E",
"* c #5539376A1ED8",
"= c #560237DA1EFF",
"- c #58C339621F85",
"; c #590A39891F93",
": c #DFDF84843939",
/* pixels */
"                              ",
"                              ",
"                              ",
"                              ",
"                              ",
"                              ",
"                              ",
"            *::::;.           ",
"          O::::::::@          ",
"         +::::::::::o         ",
"        .::::::::::::.        ",
"        =::::::::::::$        ",
"        ::::::::::::::        ",
"        ::::::::::::::        ",
"        ::::::::::::::        ",
"        ::::::::::::::        ",
"        -::::::::::::&        ",
"        .::::::::::::.        ",
"         #::::::::::o         ",
"          o::::::::O          ",
"            %::::=X           ",
"                              ",
"                              ",
"                              ",
"                              ",
"                              ",
"                              ",
"                              ",
"                              ",
"                              "
};
