/* XPM */
static char *min_press[] = {
/* columns rows colors chars-per-pixel */
"30 30 16 1 ",
"  c gray7",
". c #146F1388129F",
"X c #14E913D412BC",
"o c #367A28981A8E",
"O c #36B428BB1A9B",
"+ c #3753291D1AC1",
"@ c #387F29D81B07",
"# c #39332A471B31",
"$ c #39BE2A9D1B51",
"% c #3AA02B291B86",
"& c #5DB140DB23B2",
"* c #5DEF410123C0",
"= c #5F6041E52416",
"- c #60484274244C",
"; c #639D44842513",
": c #FEFEA4A44949",
/* pixels */
"                              ",
"                              ",
"                              ",
"                              ",
"                              ",
"                              ",
"                              ",
"            =::::;X           ",
"          @::::::::$          ",
"         #::::::::::O         ",
"        .::::::::::::.        ",
"        -::::::::::::&        ",
"        ::::::::::::::        ",
"        ::::::::::::::        ",
"        ::::::::::::::        ",
"        ::::::::::::::        ",
"        ;::::::::::::*        ",
"        X::::::::::::X        ",
"         %::::::::::o         ",
"          O::::::::+          ",
"            *::::-X           ",
"                              ",
"                              ",
"                              ",
"                              ",
"                              ",
"                              ",
"                              ",
"                              ",
"                              "
};
