/* XPM */
static char *shade_press[] = {
/* columns rows colors chars-per-pixel */
"30 30 27 1 ",
"  c gray7",
". c #130313031303",
"X c #15E215E215E2",
"o c #1AB91AB91AB9",
"O c #20E620E620E6",
"+ c #222822282228",
"@ c #293129312931",
"# c #2BBA2BBA2BBA",
"$ c #328D328D328D",
"% c #378737873787",
"& c #3DF03DF03DF0",
"* c #458C458C458C",
"= c #4B084B084B08",
"- c #55CC55CC55CC",
"; c #59D659D659D6",
": c #684568456845",
"> c #6A596A596A59",
", c #7CC47CC47CC4",
"< c #85D585D585D5",
"1 c #907E907E907E",
"2 c #93E393E393E3",
"3 c #A620A620A620",
"4 c #AD09AD09AD09",
"5 c #BD78BD78BD78",
"6 c #C868C868C868",
"7 c #D685D685D685",
"8 c #DFDFDFDFDFDF",
/* pixels */
"                              ",
"                              ",
"                              ",
"                              ",
"                              ",
"                              ",
"                              ",
"                              ",
"                              ",
"                              ",
"                              ",
"                              ",
"            .#:>$X            ",
"         X%,8888883;@.        ",
"       @288888658888881@      ",
"       <8884-+  o&,7888<      ",
"       @<*o         O=<@      ",
"                              ",
"                              ",
"                              ",
"                              ",
"                              ",
"                              ",
"                              ",
"                              ",
"                              ",
"                              ",
"                              ",
"                              ",
"                              "
};
