/* XPM */
static char *stick_unfocus[] = {
/* columns rows colors chars-per-pixel */
"30 30 8 1 ",
"  c #282828282828",
". c #293929392939",
"X c #29FD29FD29FD",
"o c #2F642F642F64",
"O c #316C316C316C",
"+ c #37F837F837F8",
"@ c #38CA38CA38CA",
"# c #444444444444",
/* pixels */
"                              ",
"                              ",
"                              ",
"                              ",
"                              ",
"                              ",
"                              ",
"                              ",
"                              ",
"                              ",
"         XO+++++++++OX        ",
"        o#############o       ",
"       X###@+++++++@###X      ",
"       O##.         .##O      ",
"       +#@           @#+      ",
"       +#+           +#+      ",
"       +#@           @#+      ",
"       O##.         .##O      ",
"       X###@+++++++@###X      ",
"        o#############o       ",
"         XO+++++++++OX        ",
"                              ",
"                              ",
"                              ",
"                              ",
"                              ",
"                              ",
"                              ",
"                              ",
"                              "
};
