/* XPM */
static char *stuck_focus[] = {
/* columns rows colors chars-per-pixel */
"30 30 3 1 ",
"  c gray7",
". c #1C331C331C33",
"X c gray40",
/* pixels */
"                              ",
"                              ",
"                              ",
"                              ",
"                              ",
"                              ",
"                              ",
"                              ",
"                              ",
"                              ",
"                              ",
"         .XXXXXXXXXXX.        ",
"        .XXXXXXXXXXXXX.       ",
"        XXXXXXXXXXXXXXX       ",
"        XXXXXXXXXXXXXXX       ",
"        XXXXXXXXXXXXXXX       ",
"        XXXXXXXXXXXXXXX       ",
"        XXXXXXXXXXXXXXX       ",
"        .XXXXXXXXXXXXX.       ",
"         .XXXXXXXXXXX.        ",
"                              ",
"                              ",
"                              ",
"                              ",
"                              ",
"                              ",
"                              ",
"                              ",
"                              ",
"                              "
};
