/* XPM */
static char *unshade_focus[] = {
/* columns rows colors chars-per-pixel */
"30 30 25 1 ",
"  c gray7",
". c #131B131B131B",
"X c #146F146F146F",
"o c #150F150F150F",
"O c #164C164C164C",
"+ c #18B318B318B3",
"@ c #1B941B941B94",
"# c #1BF81BF81BF8",
"$ c #1F201F201F20",
"% c #232523252325",
"& c #273427342734",
"* c #27B427B427B4",
"= c #2CCD2CCD2CCD",
"- c #327032703270",
"; c #33C033C033C0",
": c #367236723672",
"> c #3F543F543F54",
", c #418141814181",
"< c #469446944694",
"1 c #49CE49CE49CE",
"2 c #4E5F4E5F4E5F",
"3 c #56B456B456B4",
"4 c #5F935F935F93",
"5 c #614661466146",
"6 c gray40",
/* pixels */
"                              ",
"                              ",
"                              ",
"                              ",
"                              ",
"                              ",
"                              ",
"                              ",
"                              ",
"                              ",
"       @,#           #,@      ",
"       ,66$         &66,      ",
"       @666%       :665@      ",
"        +466*    o1661o       ",
"         O366=  #566:         ",
"          X266-&666&          ",
"           .<66665#           ",
"             >661o            ",
"              ;;              ",
"                              ",
"                              ",
"                              ",
"                              ",
"                              ",
"                              ",
"                              ",
"                              ",
"                              ",
"                              ",
"                              "
};
