/* XPM */
static char *unshade_unfocus[] = {
/* columns rows colors chars-per-pixel */
"30 30 18 1 ",
"  c #282828282828",
". c #293229322932",
"X c #2A5E2A5E2A5E",
"o c #2B642B642B64",
"O c #2C822C822C82",
"+ c #2DD92DD92DD9",
"@ c #2F3E2F3E2F3E",
"# c #311131113111",
"$ c #333D333D333D",
"% c #344834483448",
"& c #373E373E373E",
"* c #37F837F837F8",
"= c #39A939A939A9",
"- c #3ABC3ABC3ABC",
"; c #3C423C423C42",
": c #3F093F093F09",
"> c #426B426B426B",
", c #444444444444",
/* pixels */
"                              ",
"                              ",
"                              ",
"                              ",
"                              ",
"                              ",
"                              ",
"                              ",
"                              ",
"                              ",
"       o*o           o*o      ",
"       *,,O         @,,*      ",
"       o,,,+       %,,>o      ",
"        X>,,@    .-,,-.       ",
"         .:,,#  o>,,%         ",
"          .;,,$@,,,@          ",
"            =,,,,>o           ",
"             &,,-.            ",
"              $$              ",
"                              ",
"                              ",
"                              ",
"                              ",
"                              ",
"                              ",
"                              ",
"                              ",
"                              ",
"                              ",
"                              "
};
